<?xml version="1.0" encoding="UTF-8" standalone="no"?>
<!-- Created with Inkscape (http://www.inkscape.org/) -->
<svg
   xmlns:svg="http://www.w3.org/2000/svg"
   xmlns="http://www.w3.org/2000/svg"
   xmlns:xlink="http://www.w3.org/1999/xlink"
   id="svg1501"
   height="64.000000"
   width="64.000000"
   y="0.0000000"
   x="0.0000000"
   version="1.0">
  <defs
     id="defs3">
    <linearGradient
       id="linearGradient612">
      <stop
         id="stop613"
         offset="0.0000000"
         style="stop-color:#7fa8e3;stop-opacity:0.74117601;" />
      <stop
         id="stop614"
         offset="1.0000000"
         style="stop-color:#ffffff;stop-opacity:0.0000000;" />
    </linearGradient>
    <linearGradient
       spreadMethod="pad"
       gradientTransform="matrix(0.627869,0.000000,0.000000,0.635430,1.676383,2.327129)"
       gradientUnits="userSpaceOnUse"
       xlink:href="#linearGradient612"
       id="linearGradient19714"
       y2="68.044357"
       x2="35.752094"
       y1="5.3679295"
       x1="50.643887" />
    <linearGradient
       id="linearGradient626">
      <stop
         id="stop627"
         offset="0.0000000"
         style="stop-color:#b5772d;stop-opacity:1.0000000;" />
      <stop
         id="stop628"
         offset="1.0000000"
         style="stop-color:#ffffff;stop-opacity:0.0000000;" />
    </linearGradient>
    <linearGradient
       spreadMethod="pad"
       gradientTransform="scale(0.912664,1.095694)"
       gradientUnits="userSpaceOnUse"
       xlink:href="#linearGradient626"
       id="linearGradient19721"
       y2="39.762909"
       x2="51.654526"
       y1="43.377247"
       x1="56.327614" />
    <linearGradient
       id="linearGradient619">
      <stop
         id="stop620"
         offset="0.0000000"
         style="stop-color:#770000;stop-opacity:1.0000000;" />
      <stop
         id="stop621"
         offset="1.0000000"
         style="stop-color:#ffffff;stop-opacity:0.0000000;" />
    </linearGradient>
    <linearGradient
       spreadMethod="pad"
       gradientTransform="scale(1.004516,0.995504)"
       gradientUnits="userSpaceOnUse"
       xlink:href="#linearGradient619"
       id="linearGradient19719"
       y2="20.962799"
       x2="63.465496"
       y1="23.212469"
       x1="66.331696" />
    <linearGradient
       spreadMethod="pad"
       gradientTransform="matrix(0.627869,0.000000,0.000000,0.635430,-0.339011,0.599649)"
       gradientUnits="userSpaceOnUse"
       xlink:href="#linearGradient612"
       id="linearGradient2388"
       y2="68.044357"
       x2="35.752094"
       y1="5.3679295"
       x1="50.643887" />
    <linearGradient
       spreadMethod="pad"
       gradientTransform="scale(1.004516,0.995504)"
       gradientUnits="userSpaceOnUse"
       xlink:href="#linearGradient619"
       id="linearGradient2393"
       y2="20.962799"
       x2="63.465496"
       y1="23.212469"
       x1="66.331696" />
    <linearGradient
       spreadMethod="pad"
       gradientTransform="scale(0.912664,1.095694)"
       gradientUnits="userSpaceOnUse"
       xlink:href="#linearGradient626"
       id="linearGradient2395"
       y2="39.762909"
       x2="51.654526"
       y1="43.377247"
       x1="56.327614" />
    <linearGradient
       spreadMethod="pad"
       gradientTransform="matrix(0.627869,0.000000,0.000000,0.635430,-0.339011,0.599649)"
       gradientUnits="userSpaceOnUse"
       xlink:href="#linearGradient612"
       id="linearGradient2492"
       y2="68.044357"
       x2="35.752094"
       y1="5.3679295"
       x1="50.643887" />
    <linearGradient
       spreadMethod="pad"
       gradientTransform="scale(1.004516,0.995504)"
       gradientUnits="userSpaceOnUse"
       xlink:href="#linearGradient619"
       id="linearGradient2494"
       y2="20.962799"
       x2="63.465496"
       y1="23.212469"
       x1="66.331696" />
    <linearGradient
       spreadMethod="pad"
       gradientTransform="scale(0.912664,1.095694)"
       gradientUnits="userSpaceOnUse"
       xlink:href="#linearGradient626"
       id="linearGradient2496"
       y2="39.762909"
       x2="51.654526"
       y1="43.377247"
       x1="56.327614" />
  </defs>
  <g
     id="g2455"
     transform="translate(0.287913,0.575826)">
    <path
       id="path794"
       style="fill:#000000;fill-opacity:0.30147097;fill-rule:evenodd;stroke:none;stroke-width:1.0000000pt;stroke-linecap:butt;stroke-linejoin:miter;stroke-opacity:1.0000000"
       d="M 5.9373066,53.649609 C 4.1401456,52.822854 1.6895110,50.177362 2.9965297,46.539743 C 3.6499956,42.571543 15.413176,7.5183644 18.027260,5.8649227 C 19.660953,4.3768319 22.030018,3.7981071 25.379243,4.7075132 C 28.156657,5.3688965 53.153340,11.982744 54.623702,13.305450 C 56.094144,14.628237 57.237787,15.702967 56.094144,18.596511 C 55.277301,20.084588 45.556254,53.484245 45.392929,55.633786 C 44.739410,57.948624 42.860621,60.759482 39.756414,60.594118 C 36.652281,60.428747 8.2245974,54.145635 5.9373066,53.649609 z " />
    <path
       id="path609"
       style="fill:#3d4e67;fill-opacity:1.0000000;fill-rule:evenodd;stroke:none;stroke-width:1.0000000pt;stroke-linecap:butt;stroke-linejoin:miter;stroke-opacity:1.0000000"
       d="M 4.0425217,50.581521 C 2.2453596,49.754766 -0.20527395,47.109272 1.1017447,43.471654 C 1.7552107,39.503454 13.518391,4.4502749 16.132475,2.7968337 C 17.766167,1.3087429 20.135231,0.73001813 23.484458,1.6394242 C 26.261870,2.3008075 51.258555,8.9146547 52.728916,10.237362 C 54.199359,11.560149 55.343000,12.634880 54.199359,15.528423 C 53.382516,17.016500 43.661469,50.416156 43.498144,52.565698 C 42.844625,54.880536 40.965836,57.691394 37.861629,57.526029 C 34.757495,57.360657 6.3298126,51.077546 4.0425217,50.581521 z " />
    <path
       id="path608"
       style="fill:#ffffff;fill-opacity:1.0000000;fill-rule:evenodd;stroke:none;stroke-width:1.0000000pt;stroke-linecap:butt;stroke-linejoin:miter;stroke-opacity:1.0000000"
       d="M 7.8002465,47.770662 C 5.9214572,47.274637 3.2255986,46.778537 4.2059176,43.802390 C 6.0030863,36.527226 15.152235,8.5839197 19.073212,5.1116656 C 19.971829,4.2849113 22.994261,3.9542497 28.712478,5.7730620 C 35.247619,7.7571585 48.481140,12.221464 49.788186,12.882855 C 51.095151,13.544246 51.585348,13.544246 50.605029,16.520473 C 49.134666,19.496702 42.599600,44.959805 40.965762,49.258741 C 39.822194,52.317647 39.577095,53.723040 37.616530,53.723040" />
    <path
       id="path636"
       style="fill:url(#linearGradient2492);fill-opacity:1.0000000;fill-rule:evenodd;stroke:none;stroke-width:1.0000000pt;stroke-linecap:butt;stroke-linejoin:miter;stroke-opacity:1.0000000"
       d="M 17.712199,9.3368137 C 17.712199,9.3368137 19.674288,5.3653399 24.579510,6.5567764 C 29.484730,7.7482387 48.713194,12.911104 48.516985,14.499678 C 48.320776,16.088254 44.789015,25.421132 44.592805,26.215424 C 44.396595,27.009708 26.345390,26.612569 19.478079,30.782577 C 12.610774,34.952584 7.5093449,38.526879 7.5093449,38.526879 C 7.5093449,38.526879 14.572857,16.286827 17.712199,9.3368137 z " />
    <path
       id="path667"
       style="font-size:12.000000;fill:none;fill-rule:evenodd;stroke:#4f4f4f;stroke-width:1.8682091;stroke-linecap:round;stroke-opacity:1.0000000"
       d="M 30.862408,10.804865 C 28.693215,10.804865 27.647115,9.0945097 27.647115,6.5175738 C 27.647115,3.9406181 29.407677,1.8491716 31.576873,1.8491716 C 33.746068,1.8491716 34.434801,2.6067905 34.434801,5.1837397" />
    <path
       id="path668"
       style="font-size:12.000000;fill:none;fill-rule:evenodd;stroke:#c2c2c2;stroke-width:0.40613237;stroke-linecap:round;stroke-opacity:1.0000000"
       d="M 30.862408,10.614326 C 28.693215,10.614326 27.468501,9.0945097 27.468501,6.5175738 C 27.468501,3.9406181 29.229062,1.2775346 31.398256,1.2775346 C 33.567451,1.2775346 34.434801,2.6067905 34.434801,5.1837397" />
    <path
       id="path669"
       style="font-size:12.000000;fill:none;fill-rule:evenodd;stroke:#4f4f4f;stroke-width:1.8682091;stroke-linecap:round;stroke-opacity:1.0000000"
       d="M 38.016994,12.138706 C 35.847799,12.138706 34.801701,10.428351 34.801701,7.8514143 C 34.801701,5.2744588 36.562263,3.1830123 38.731458,3.1830123 C 40.900653,3.1830123 41.589386,3.9406322 41.589386,6.5175812" />
    <path
       id="path670"
       style="font-size:12.000000;fill:none;fill-rule:evenodd;stroke:#c2c2c2;stroke-width:0.40613237;stroke-linecap:round;stroke-opacity:1.0000000"
       d="M 38.016994,11.948167 C 35.847799,11.948167 34.623086,10.428351 34.623086,7.8514143 C 34.623086,5.2744588 36.383647,2.6113752 38.552842,2.6113752 C 40.722037,2.6113752 41.589386,3.9406322 41.589386,6.5175812" />
    <g
       id="g17919"
       transform="matrix(0.333563,0.000000,0.000000,0.370965,-116.0309,-216.1046)">
      <path
         id="path17907"
         style="fill:#000000;fill-opacity:1.0000000;fill-rule:nonzero;stroke:none;stroke-width:1.0000000pt;stroke-linecap:butt;stroke-linejoin:miter;stroke-opacity:1.0000000"
         d="M 415.31233,627.86155 C 417.04412,630.72137 419.72727,632.87371 422.38061,634.84940 C 426.20694,637.74390 430.66805,639.49836 435.24351,640.79466 C 438.48537,641.55074 441.51892,642.92021 444.57316,644.20706 C 448.48503,645.97357 452.66330,646.83817 456.88105,647.46255 C 459.91717,647.84316 462.96634,648.01410 465.97589,648.58496 C 469.12016,649.30713 472.24462,650.12201 475.38791,650.85646 C 476.30405,651.07900 477.23910,651.19040 478.17107,651.31763 L 470.45770,656.72874 C 469.56588,656.53080 468.67367,656.33467 467.78585,656.11909 C 464.58895,655.35434 461.39290,654.55870 458.13808,654.07626 C 455.24009,653.61781 452.34214,653.15858 449.44584,652.68681 C 445.20516,651.94120 441.05927,650.84716 437.05354,649.24512 C 433.91937,648.09627 430.74315,647.07309 427.57806,646.01482 C 423.12525,644.48199 419.11568,642.01709 415.21660,639.40289 C 412.70047,637.66975 409.30907,634.64106 406.85568,634.00567 L 415.31233,627.86155 z " />
      <path
         id="path17909"
         style="fill:#000000;fill-opacity:1.0000000;fill-rule:nonzero;stroke:none;stroke-width:1.0000000pt;stroke-linecap:butt;stroke-linejoin:miter;stroke-opacity:1.0000000"
         d="M 453.22827,620.00198 C 451.89984,622.79992 450.49695,625.71823 449.26473,628.61632 C 447.82478,631.74054 446.68840,634.99926 445.08973,638.04845 C 443.43374,640.82721 442.21864,643.82455 440.87870,646.76052 C 439.08657,650.45183 437.33170,654.16831 435.18422,657.66969 C 433.67194,660.06532 431.96433,662.32688 430.49649,664.75098 C 429.01190,667.67554 427.28266,670.42252 425.28700,673.02465 C 423.12488,675.66505 420.92963,678.27708 418.69244,680.85410 C 417.59749,682.09419 416.56245,683.38396 415.53247,684.67780 L 407.18449,688.25635 C 408.17300,686.98111 409.14120,685.68940 410.19131,684.46336 C 412.31494,681.80805 414.65589,679.33340 416.76346,676.66319 C 418.77196,674.17928 420.51507,671.54307 421.80119,668.60676 C 423.28970,666.09722 424.96462,663.72145 426.71235,661.38558 C 429.02978,658.00021 431.01227,654.42126 432.50989,650.59203 C 433.76765,647.70350 434.89578,644.74433 436.38318,641.96602 C 438.12074,638.81345 439.73939,635.60459 441.20132,632.31187 C 442.21984,629.97077 443.44976,626.96022 443.91459,624.74754 L 453.22827,620.00198 z " />
      <path
         id="path17911"
         style="fill:#000000;fill-opacity:1.0000000;fill-rule:nonzero;stroke:none;stroke-width:1.0000000pt;stroke-linecap:butt;stroke-linejoin:miter;stroke-opacity:1.0000000"
         d="M 438.62661,644.47334 C 434.90292,649.11936 427.50806,652.18258 422.70643,654.94091 C 418.99315,657.10088 414.94710,658.39058 410.75648,659.18903 C 407.71978,659.50128 404.72793,660.09999 401.72458,660.62856 C 398.25025,661.34365 394.72622,661.70075 391.20347,662.06453 C 387.54131,662.36837 383.88788,662.77544 380.21366,662.89729 C 378.35983,662.93635 376.52822,662.68510 374.69522,662.44935 L 382.64098,656.84405 C 384.40417,657.09906 386.17382,657.26917 387.95809,657.27512 C 391.51863,657.37885 395.06417,657.04007 398.59175,656.57352 C 402.10099,656.16024 405.62500,655.82534 409.08258,655.06686 C 412.14147,654.44121 415.20845,653.87618 418.30986,653.50710 C 422.22556,652.89064 425.94611,651.53292 429.38573,649.54859 C 416.10495,657.24899 426.70132,651.59748 429.20538,648.89791 L 438.62661,644.47334 z " />
      <path
         id="path17913"
         style="fill:#000000;fill-opacity:1.0000000;fill-rule:nonzero;stroke:none;stroke-width:1.0000000pt;stroke-linecap:butt;stroke-linejoin:miter;stroke-opacity:1.0000000"
         d="M 440.22565,645.12826 C 440.79106,648.28113 442.45505,651.07589 444.03617,653.81483 C 445.94451,657.27126 448.29860,660.44097 450.73342,663.53689 C 452.87485,666.44132 454.96684,669.38056 457.05507,672.32347 C 459.28461,675.89390 461.98969,679.10432 465.10288,681.92795 C 467.80089,684.25047 470.96336,685.81297 474.20515,687.20804 C 474.41072,687.29542 474.61628,687.38279 474.82185,687.47017 L 467.00452,692.66525 C 466.80527,692.57294 466.60601,692.48062 466.40675,692.38830 C 463.17158,690.87434 460.03564,689.21019 457.47138,686.65811 C 454.36949,683.71781 451.62827,680.47065 449.15513,676.98345 C 447.07416,674.04476 444.99638,671.09874 442.68809,668.33143 C 440.25659,665.17163 438.49798,661.62792 436.47586,658.20415 C 434.80349,655.56884 433.38840,652.66827 431.25322,650.38584 L 440.22565,645.12826 z " />
      <path
         id="path17915"
         style="fill:#000000;fill-opacity:1.0000000;fill-rule:nonzero;stroke:none;stroke-width:1.0000000pt;stroke-linecap:butt;stroke-linejoin:miter;stroke-opacity:1.0000000"
         d="M 413.16947,666.43298 C 415.82815,667.62309 418.66923,668.50560 421.43671,669.44952 C 425.63608,670.87645 429.75470,672.56639 433.62795,674.73420 C 435.88711,676.09408 438.01275,677.65345 440.13337,679.21478 L 432.30301,684.21143 C 430.11613,682.74664 427.96423,681.23124 425.72622,679.84355 C 422.14603,677.55362 418.43728,675.49691 414.33307,674.27446 C 411.25833,673.30664 407.94804,672.28098 404.71283,672.57710 L 413.16947,666.43298 z " />
    </g>
    <g
       id="g677"
       transform="matrix(0.411755,0.212067,-0.214623,0.416716,36.14436,10.79983)">
      <defs
         id="defs611">
        <linearGradient
           id="linearGradient1696">
          <stop
             id="stop1698"
             offset="0.0000000"
             style="stop-color:#b5772d;stop-opacity:1.0000000;" />
          <stop
             id="stop1700"
             offset="1.0000000"
             style="stop-color:#ffffff;stop-opacity:0.0000000;" />
        </linearGradient>
        <linearGradient
           id="linearGradient1702">
          <stop
             id="stop1704"
             offset="0.0000000"
             style="stop-color:#770000;stop-opacity:1.0000000;" />
          <stop
             id="stop1706"
             offset="1.0000000"
             style="stop-color:#ffffff;stop-opacity:0.0000000;" />
        </linearGradient>
        <linearGradient
           spreadMethod="pad"
           gradientTransform="scale(1.004516,0.995504)"
           gradientUnits="userSpaceOnUse"
           xlink:href="#linearGradient619"
           id="linearGradient622"
           y2="20.962799"
           x2="63.465496"
           y1="23.212469"
           x1="66.331696" />
        <linearGradient
           spreadMethod="pad"
           gradientTransform="scale(0.912664,1.095694)"
           gradientUnits="userSpaceOnUse"
           xlink:href="#linearGradient626"
           id="linearGradient625"
           y2="39.762909"
           x2="51.654526"
           y1="43.377247"
           x1="56.327614" />
      </defs>
      <path
         id="path632"
         style="fill:#000000;fill-opacity:0.28318599;fill-rule:evenodd;stroke:none;stroke-width:1.0000000pt;stroke-linecap:butt;stroke-linejoin:miter;stroke-opacity:1.0000000"
         transform="translate(3.814559,2.934275)"
         d="M 9.3368500,82.115600 C 17.912900,79.764100 30.911200,77.563700 40.109700,71.892400 C 56.985100,62.071400 66.011800,41.633200 76.455100,25.587700 C 77.285000,12.308600 64.112800,5.9687200 59.133100,8.8734500 C 46.476600,25.472200 37.554800,43.523500 23.445800,55.972500 C 19.088600,66.554200 9.1293400,82.738000 9.3368500,82.115600 z " />
      <path
         id="path617"
         style="fill:#000000;fill-opacity:1.0000000;fill-rule:evenodd;stroke:none;stroke-width:1.0000000pt;stroke-linecap:butt;stroke-linejoin:miter;stroke-opacity:1.0000000"
         d="M 9.3368500,82.115600 C 17.912900,79.764100 28.563800,74.922800 37.762300,69.251600 C 54.637700,59.430600 64.251200,38.405500 74.694500,22.360000 C 75.524400,9.0809200 64.112800,5.9687200 59.133100,8.8734500 C 46.476600,25.472200 37.554800,43.523500 23.445800,55.972500 C 19.088600,66.554200 9.1293400,82.738000 9.3368500,82.115600 z " />
      <path
         id="path613"
         style="fill:#be6d6d;fill-opacity:1.0000000;fill-rule:evenodd;stroke:none;stroke-width:1.0000000pt;stroke-linecap:butt;stroke-linejoin:miter;stroke-opacity:1.0000000"
         d="M 71.997200,20.907600 C 70.268200,23.397400 68.539100,25.887200 66.810100,28.377000 C 64.527800,22.982400 61.830500,20.285100 54.983500,19.662700 C 57.196700,16.965400 59.409800,14.268100 61.623000,11.570800 C 67.155900,10.948300 71.443900,15.720500 71.997200,20.907600 z " />
      <path
         id="path614"
         style="fill:#ffbc24;fill-opacity:1.0000000;fill-rule:evenodd;stroke:none;stroke-width:1.0000000pt;stroke-linecap:butt;stroke-linejoin:miter;stroke-opacity:1.0000000"
         d="M 54.776000,20.907600 C 60.170600,20.561800 63.905300,24.573200 65.980100,29.207000 C 57.542400,42.831800 50.557100,56.249200 36.309800,66.969200 C 36.309800,66.969200 32.782600,56.802400 27.595500,58.047400 C 34.027500,50.785400 48.966400,30.037000 54.776000,20.907600 z " />
      <path
         id="path615"
         style="fill:#e9dbb9;fill-opacity:1.0000000;fill-rule:evenodd;stroke:none;stroke-width:1.0000000pt;stroke-linecap:butt;stroke-linejoin:miter;stroke-opacity:1.0000000"
         d="M 27.076700,58.669800 C 31.745100,58.427700 35.687300,63.995300 34.649900,67.384200 C 32.644200,68.905700 29.393700,70.427300 27.388000,71.948800 C 27.042200,69.182400 25.244000,67.038400 21.370900,67.384200 C 23.099900,64.410200 25.347700,61.643800 27.076700,58.669800 z " />
      <path
         id="path616"
         style="fill:#586f93;fill-opacity:1.0000000;fill-rule:evenodd;stroke:none;stroke-width:1.0000000pt;stroke-linecap:butt;stroke-linejoin:miter;stroke-opacity:1.0000000"
         d="M 21.785900,66.969200 C 25.347700,66.139300 26.834700,69.666500 27.595500,71.741400 L 14.316400,77.758400 L 21.785900,66.969200 z " />
      <path
         id="path618"
         style="fill:url(#linearGradient2494);fill-opacity:1.0000000;fill-rule:evenodd;stroke:none;stroke-width:1.0000000pt;stroke-linecap:butt;stroke-linejoin:miter;stroke-opacity:1.0000000"
         d="M 71.997200,20.907600 C 70.268200,23.397400 68.539100,25.887200 66.810100,28.377000 C 64.527800,22.982400 61.830500,20.285100 54.983500,19.662700 C 57.196700,16.965400 59.409800,14.268100 61.623000,11.570800 C 67.155900,10.948300 71.443900,15.720500 71.997200,20.907600 z " />
      <path
         id="path623"
         style="fill:#ffffff;fill-opacity:1.0000000;fill-rule:evenodd;stroke:none;stroke-width:1.0000000pt;stroke-linecap:butt;stroke-linejoin:miter;stroke-opacity:1.0000000"
         d="M 62.867900,12.193200 L 57.473300,19.040200 L 60.378100,20.077600 L 65.772700,13.645600 L 62.867900,12.193200 z " />
      <path
         id="path624"
         style="fill:url(#linearGradient2496);fill-opacity:1.0000000;fill-rule:evenodd;stroke:none;stroke-width:1.0000000pt;stroke-linecap:butt;stroke-linejoin:miter;stroke-opacity:1.0000000"
         d="M 54.776000,20.907600 C 60.170600,20.561800 63.905300,24.573200 65.980100,29.207000 C 57.542400,42.831800 50.557100,56.249200 36.309800,66.969200 C 36.309800,66.969200 32.782600,56.802400 27.595500,58.047400 C 34.027500,50.785400 48.966400,30.037000 54.776000,20.907600 z " />
      <path
         id="path630"
         style="fill:#ffffff;fill-opacity:1.0000000;fill-rule:evenodd;stroke:none;stroke-width:1.0000000pt;stroke-linecap:butt;stroke-linejoin:miter;stroke-opacity:1.0000000"
         d="M 29.670300,56.180000 C 30.915200,56.940800 32.160100,57.701500 33.405000,58.462300 C 42.534400,47.603900 46.684100,36.538100 58.925700,24.642300 C 57.749900,23.881500 56.574200,23.120800 55.398400,22.360000 C 48.067300,35.085700 39.698700,47.396500 29.670300,56.180000 z " />
      <path
         id="path631"
         style="fill:#9c7850;fill-opacity:1.0000000;fill-rule:evenodd;stroke:none;stroke-width:1.0000000pt;stroke-linecap:butt;stroke-linejoin:miter;stroke-opacity:1.0000000"
         d="M 34.753800,67.280500 C 34.961200,65.101900 34.442500,63.545700 33.301300,61.782100 C 31.779800,65.171000 29.428300,67.626200 26.143100,68.421600 C 25.416900,69.044000 27.388000,70.392700 27.595500,71.637600 C 29.462900,70.496400 34.753800,67.902900 34.753800,67.280500 z " />
    </g>
  </g>
</svg>
